<svg width="25" height="24" viewBox="0 0 25 24" fill="none" xmlns="http://www.w3.org/2000/svg">
<path d="M12.5 2C6.97773 2 2.5 6.47705 2.5 12C2.5 17.523 6.97729 22 12.5 22C18.0231 22 22.5 17.523 22.5 12C22.5 6.47705 18.0231 2 12.5 2ZM12.5 4.99012C13.3772 4.99006 14.2185 5.33849 14.8389 5.95877C15.4592 6.57904 15.8077 7.42035 15.8078 8.29761C15.8078 9.17486 15.4594 10.0162 14.8392 10.6366C14.2189 11.2569 13.3777 11.6055 12.5004 11.6055C11.6232 11.6056 10.7819 11.2572 10.1616 10.6369C9.54124 10.0166 9.19271 9.1753 9.19266 8.29805C9.1926 7.42079 9.54102 6.57943 10.1613 5.95908C10.7815 5.33872 11.6228 4.99017 12.5 4.99012ZM12.4978 19.3855C10.7455 19.3874 9.05029 18.7623 7.71875 17.6231C7.56379 17.4909 7.43933 17.3266 7.35395 17.1417C7.26856 16.9567 7.22428 16.7554 7.22415 16.5517C7.22415 14.6993 8.72332 13.2168 10.5761 13.2168H14.4248C16.278 13.2168 17.7715 14.6993 17.7715 16.5517C17.7716 16.7554 17.7275 16.9566 17.6421 17.1415C17.5568 17.3264 17.4323 17.4906 17.2773 17.6227C15.9458 18.7623 14.2504 19.3876 12.4978 19.3855Z" fill="white"/>
</svg>
